<?xml version="1.0" encoding="UTF-8" standalone="no"?>
<svg
   aria-roledescription="sequence"
   role="graphics-document document"
   viewBox="-50 -10 859 600"
   width="859"
   id="graph-div"
   height="600"
   version="1.1"
   sodipodi:docname="git-lifecycle-alex.svg"
   inkscape:version="1.2.2 (b0a84865, 2022-12-01)"
   xmlns:inkscape="http://www.inkscape.org/namespaces/inkscape"
   xmlns:sodipodi="http://sodipodi.sourceforge.net/DTD/sodipodi-0.dtd"
   xmlns="http://www.w3.org/2000/svg"
   xmlns:svg="http://www.w3.org/2000/svg">
  <sodipodi:namedview
     id="namedview165"
     pagecolor="#ffffff"
     bordercolor="#666666"
     borderopacity="1.0"
     inkscape:showpageshadow="2"
     inkscape:pageopacity="0.0"
     inkscape:pagecheckerboard="0"
     inkscape:deskcolor="#d1d1d1"
     showgrid="false"
     inkscape:zoom="1.0931315"
     inkscape:cx="374.61182"
     inkscape:cy="256.60224"
     inkscape:window-width="2001"
     inkscape:window-height="1109"
     inkscape:window-x="458"
     inkscape:window-y="175"
     inkscape:window-maximized="0"
     inkscape:current-layer="graph-div" />
  <style
     id="style9">@import url(&quot;https://cdnjs.cloudflare.com/ajax/libs/font-awesome/6.4.2/css/all.min.css&quot;);'</style>
  <g
     id="g17"
     transform="translate(0,70)">
    <rect
       style="fill:#7d7d7d;fill-opacity:0.2;stroke:#000000;stroke-width:0.557958"
       id="rect670-7"
       width="189.80623"
       height="556.64233"
       x="585.17303"
       y="31.859915"
       transform="translate(0,-90)" />
    <rect
       class="actor"
       ry="3"
       rx="3"
       height="65"
       width="158"
       stroke="#666666"
       fill="#eaeaea"
       y="421"
       x="601"
       id="rect11" />
    <text
       style="font-weight:400;font-size:16px;text-anchor:middle"
       class="actor"
       alignment-baseline="central"
       dominant-baseline="central"
       y="453.5"
       x="680"
       id="text15"><tspan
         dy="0"
         x="680"
         id="tspan13">Remote Repository</tspan></text>
  </g>
  <rect
     style="fill:#bfbfbf;fill-opacity:0.2;stroke:#000000;stroke-width:0.981113"
     id="rect670"
     width="587.32239"
     height="556.21912"
     x="-17.076536"
     y="12.071491" />
  <g
     id="g25"
     transform="translate(0,70)">
    <rect
       class="actor"
       ry="3"
       rx="3"
       height="65"
       width="150"
       stroke="#666666"
       fill="#eaeaea"
       y="421"
       x="401"
       id="rect19" />
    <text
       style="font-weight:400;font-size:16px;text-anchor:middle"
       class="actor"
       alignment-baseline="central"
       dominant-baseline="central"
       y="453.5"
       x="476"
       id="text23"><tspan
         dy="0"
         x="476"
         id="tspan21">Local Repository</tspan></text>
  </g>
  <g
     id="g33"
     transform="translate(0,70)">
    <rect
       class="actor"
       ry="3"
       rx="3"
       height="65"
       width="150"
       stroke="#666666"
       fill="#eaeaea"
       y="421"
       x="201"
       id="rect27" />
    <text
       style="font-weight:400;font-size:16px;text-anchor:middle"
       class="actor"
       alignment-baseline="central"
       dominant-baseline="central"
       y="453.5"
       x="276"
       id="text31"><tspan
         dy="0"
         x="276"
         id="tspan29">Staging Area</tspan></text>
  </g>
  <g
     id="g41"
     transform="translate(0,70)">
    <rect
       class="actor"
       ry="3"
       rx="3"
       height="65"
       width="151"
       stroke="#666666"
       fill="#eaeaea"
       y="421"
       x="0"
       id="rect35" />
    <text
       style="font-weight:400;font-size:16px;text-anchor:middle"
       class="actor"
       alignment-baseline="central"
       dominant-baseline="central"
       y="453.5"
       x="75.5"
       id="text39"><tspan
         dy="0"
         x="75.5"
         id="tspan37">Working Directory</tspan></text>
  </g>
  <g
     id="g51"
     transform="translate(0,70)">
    <line
       stroke="#999999"
       stroke-width="0.5px"
       class="200"
       y2="421"
       x2="680"
       y1="5"
       x1="680"
       id="actor623" />
    <g
       id="root-623">
      <rect
         class="actor"
         ry="3"
         rx="3"
         height="65"
         width="158"
         stroke="#666666"
         fill="#eaeaea"
         y="0"
         x="601"
         id="rect44" />
      <text
         style="font-weight:400;font-size:16px;text-anchor:middle"
         class="actor"
         alignment-baseline="central"
         dominant-baseline="central"
         y="32.5"
         x="680"
         id="text48"><tspan
           dy="0"
           x="680"
           id="tspan46">Remote Repository</tspan></text>
    </g>
  </g>
  <g
     id="g61"
     transform="translate(0,70)">
    <line
       stroke="#999999"
       stroke-width="0.5px"
       class="200"
       y2="421"
       x2="476"
       y1="5"
       x1="476"
       id="actor622" />
    <g
       id="root-622">
      <rect
         class="actor"
         ry="3"
         rx="3"
         height="65"
         width="150"
         stroke="#666666"
         fill="#eaeaea"
         y="0"
         x="401"
         id="rect54" />
      <text
         style="font-weight:400;font-size:16px;text-anchor:middle"
         class="actor"
         alignment-baseline="central"
         dominant-baseline="central"
         y="32.5"
         x="476"
         id="text58"><tspan
           dy="0"
           x="476"
           id="tspan56">Local Repository</tspan></text>
    </g>
  </g>
  <g
     id="g71"
     transform="translate(0,70)">
    <line
       stroke="#999999"
       stroke-width="0.5px"
       class="200"
       y2="421"
       x2="276"
       y1="5"
       x1="276"
       id="actor621" />
    <g
       id="root-621">
      <rect
         class="actor"
         ry="3"
         rx="3"
         height="65"
         width="150"
         stroke="#666666"
         fill="#eaeaea"
         y="0"
         x="201"
         id="rect64" />
      <text
         style="font-weight:400;font-size:16px;text-anchor:middle"
         class="actor"
         alignment-baseline="central"
         dominant-baseline="central"
         y="32.5"
         x="276"
         id="text68"><tspan
           dy="0"
           x="276"
           id="tspan66">Staging Area</tspan></text>
    </g>
  </g>
  <g
     id="g81"
     transform="translate(0,70)">
    <line
       stroke="#999999"
       stroke-width="0.5px"
       class="200"
       y2="421"
       x2="75.5"
       y1="5"
       x1="75.5"
       id="actor620" />
    <g
       id="root-620">
      <rect
         class="actor"
         ry="3"
         rx="3"
         height="65"
         width="151"
         stroke="#666666"
         fill="#eaeaea"
         y="0"
         x="0"
         id="rect74" />
      <text
         style="font-weight:400;font-size:16px;text-anchor:middle"
         class="actor"
         alignment-baseline="central"
         dominant-baseline="central"
         y="32.5"
         x="75.5"
         id="text78"><tspan
           dy="0"
           x="75.5"
           id="tspan76">Working Directory</tspan></text>
    </g>
  </g>
  <style
     id="style83">#graph-div{font-family:&quot;trebuchet ms&quot;,verdana,arial,sans-serif;font-size:16px;fill:#333;}#graph-div .error-icon{fill:#552222;}#graph-div .error-text{fill:#552222;stroke:#552222;}#graph-div .edge-thickness-normal{stroke-width:2px;}#graph-div .edge-thickness-thick{stroke-width:3.5px;}#graph-div .edge-pattern-solid{stroke-dasharray:0;}#graph-div .edge-pattern-dashed{stroke-dasharray:3;}#graph-div .edge-pattern-dotted{stroke-dasharray:2;}#graph-div .marker{fill:#333333;stroke:#333333;}#graph-div .marker.cross{stroke:#333333;}#graph-div svg{font-family:&quot;trebuchet ms&quot;,verdana,arial,sans-serif;font-size:16px;}#graph-div .actor{stroke:hsl(259.6261682243, 59.7765363128%, 87.9019607843%);fill:#ECECFF;}#graph-div text.actor&gt;tspan{fill:black;stroke:none;}#graph-div .actor-line{stroke:grey;}#graph-div .messageLine0{stroke-width:1.5;stroke-dasharray:none;stroke:#333;}#graph-div .messageLine1{stroke-width:1.5;stroke-dasharray:2,2;stroke:#333;}#graph-div #arrowhead path{fill:#333;stroke:#333;}#graph-div .sequenceNumber{fill:white;}#graph-div #sequencenumber{fill:#333;}#graph-div #crosshead path{fill:#333;stroke:#333;}#graph-div .messageText{fill:#333;stroke:none;}#graph-div .labelBox{stroke:hsl(259.6261682243, 59.7765363128%, 87.9019607843%);fill:#ECECFF;}#graph-div .labelText,#graph-div .labelText&gt;tspan{fill:black;stroke:none;}#graph-div .loopText,#graph-div .loopText&gt;tspan{fill:black;stroke:none;}#graph-div .loopLine{stroke-width:2px;stroke-dasharray:2,2;stroke:hsl(259.6261682243, 59.7765363128%, 87.9019607843%);fill:hsl(259.6261682243, 59.7765363128%, 87.9019607843%);}#graph-div .note{stroke:#aaaa33;fill:#fff5ad;}#graph-div .noteText,#graph-div .noteText&gt;tspan{fill:black;stroke:none;}#graph-div .activation0{fill:#f4f4f4;stroke:#666;}#graph-div .activation1{fill:#f4f4f4;stroke:#666;}#graph-div .activation2{fill:#f4f4f4;stroke:#666;}#graph-div .actorPopupMenu{position:absolute;}#graph-div .actorPopupMenuPanel{position:absolute;fill:#ECECFF;box-shadow:0px 8px 16px 0px rgba(0,0,0,0.2);filter:drop-shadow(3px 5px 2px rgb(0 0 0 / 0.4));}#graph-div .actor-man line{stroke:hsl(259.6261682243, 59.7765363128%, 87.9019607843%);fill:#ECECFF;}#graph-div .actor-man circle,#graph-div line{stroke:hsl(259.6261682243, 59.7765363128%, 87.9019607843%);fill:#ECECFF;stroke-width:2px;}#graph-div :root{--mermaid-font-family:&quot;trebuchet ms&quot;,verdana,arial,sans-serif;}</style>
  <g
     id="g85" />
  <defs
     id="defs90">
    <symbol
       height="24"
       width="24"
       id="computer">
      <path
         d="M 2,2 V 15 H 22 V 2 Z M 20,13 H 4 V 4 h 16 z m -10.228,6 0.466,-1 h 3.524 l 0.467,1 z M 24,22 H 0 l 2,-6 h 2.104 l -1.33,4 h 18.45 L 19.927,16 H 22 Z M 19,12 H 5 V 5 h 14 z"
         transform="scale(0.5)"
         id="path87" />
    </symbol>
  </defs>
  <defs
     id="defs95">
    <symbol
       clip-rule="evenodd"
       fill-rule="evenodd"
       id="database">
      <path
         d="m 12.258,0.001 0.256,0.004 0.255,0.005 0.253,0.008 0.251,0.01 0.249,0.012 0.247,0.015 0.246,0.016 0.242,0.019 0.241,0.02 0.239,0.023 0.236,0.024 0.233,0.027 0.231,0.028 0.229,0.031 0.225,0.032 0.223,0.034 0.22,0.036 0.217,0.038 0.214,0.04 0.211,0.041 0.208,0.043 0.205,0.045 0.201,0.046 0.198,0.048 0.194,0.05 0.191,0.051 0.187,0.053 0.183,0.054 0.18,0.056 0.175,0.057 0.172,0.059 0.168,0.06 0.163,0.061 0.16,0.063 0.155,0.064 0.15,0.066 0.074,0.033 0.073,0.033 0.071,0.034 0.07,0.034 0.069,0.035 0.068,0.035 0.067,0.035 0.066,0.035 0.064,0.036 0.064,0.036 0.062,0.036 0.06,0.036 0.06,0.037 0.058,0.037 0.058,0.037 0.055,0.038 0.055,0.038 0.053,0.038 0.052,0.038 0.051,0.039 0.05,0.039 0.048,0.039 0.047,0.039 0.045,0.04 0.044,0.04 0.043,0.04 0.041,0.04 0.04,0.041 0.039,0.041 0.037,0.041 0.036,0.041 0.034,0.041 0.033,0.042 0.032,0.042 0.03,0.042 0.029,0.042 0.027,0.042 0.026,0.043 0.024,0.043 0.023,0.043 0.021,0.043 0.02,0.043 0.018,0.044 0.017,0.043 0.015,0.044 0.013,0.044 0.012,0.044 0.011,0.045 0.009,0.044 0.007,0.045 0.006,0.045 0.004,0.045 0.002,0.045 L 22,3.5 v 17 l -0.001,0.045 -0.002,0.045 -0.004,0.045 -0.006,0.045 -0.007,0.045 -0.009,0.044 -0.011,0.045 -0.012,0.044 -0.013,0.044 -0.015,0.044 -0.017,0.043 -0.018,0.044 -0.02,0.043 -0.021,0.043 -0.023,0.043 -0.024,0.043 -0.026,0.043 -0.027,0.042 -0.029,0.042 -0.03,0.042 -0.032,0.042 -0.033,0.042 -0.034,0.041 -0.036,0.041 -0.037,0.041 -0.039,0.041 -0.04,0.041 -0.041,0.04 -0.043,0.04 -0.044,0.04 -0.045,0.04 -0.047,0.039 -0.048,0.039 -0.05,0.039 -0.051,0.039 -0.052,0.038 -0.053,0.038 -0.055,0.038 -0.055,0.038 -0.058,0.037 -0.058,0.037 -0.06,0.037 -0.06,0.036 -0.062,0.036 -0.064,0.036 -0.064,0.036 -0.066,0.035 -0.067,0.035 -0.068,0.035 -0.069,0.035 -0.07,0.034 -0.071,0.034 -0.073,0.033 -0.074,0.033 -0.15,0.066 -0.155,0.064 -0.16,0.063 -0.163,0.061 -0.168,0.06 -0.172,0.059 -0.175,0.057 -0.18,0.056 -0.183,0.054 -0.187,0.053 -0.191,0.051 -0.194,0.05 -0.198,0.048 -0.201,0.046 -0.205,0.045 -0.208,0.043 -0.211,0.041 -0.214,0.04 -0.217,0.038 -0.22,0.036 -0.223,0.034 -0.225,0.032 -0.229,0.031 -0.231,0.028 -0.233,0.027 -0.236,0.024 -0.239,0.023 -0.241,0.02 -0.242,0.019 -0.246,0.016 -0.247,0.015 -0.249,0.012 -0.251,0.01 -0.253,0.008 -0.255,0.005 -0.256,0.004 L 12,24 11.742,23.999 11.486,23.995 11.231,23.99 10.978,23.982 10.727,23.972 10.478,23.96 10.231,23.945 9.986,23.929 9.743,23.91 9.502,23.89 9.264,23.867 9.028,23.843 8.794,23.816 8.563,23.788 8.335,23.757 8.109,23.725 7.886,23.691 7.666,23.655 7.449,23.617 7.235,23.577 7.024,23.536 6.816,23.493 6.612,23.448 6.411,23.402 6.213,23.354 6.018,23.304 5.828,23.253 5.641,23.2 5.457,23.146 5.278,23.09 5.102,23.033 4.93,22.974 4.763,22.914 4.599,22.853 4.44,22.79 4.285,22.726 4.134,22.66 4.06,22.627 3.988,22.594 3.916,22.56 3.846,22.526 3.777,22.491 3.709,22.456 3.642,22.421 3.576,22.386 3.512,22.35 3.449,22.314 3.387,22.278 3.326,22.242 3.266,22.205 3.208,22.168 3.151,22.131 3.095,22.093 3.04,22.055 2.987,22.017 2.935,21.979 2.884,21.94 2.835,21.901 2.786,21.862 2.74,21.823 2.694,21.783 2.65,21.743 2.607,21.703 2.566,21.663 2.526,21.622 2.487,21.581 2.45,21.54 2.414,21.499 2.38,21.458 2.347,21.416 2.315,21.374 2.285,21.332 2.256,21.29 2.229,21.248 2.203,21.205 2.179,21.162 2.156,21.119 2.135,21.076 2.115,21.033 2.097,20.989 2.08,20.946 2.065,20.902 2.052,20.858 2.04,20.814 2.029,20.769 2.02,20.725 2.013,20.68 2.007,20.635 2.003,20.59 2.001,20.545 2,20.5 V 3.5 L 2.001,3.455 2.003,3.41 2.007,3.365 2.013,3.32 2.02,3.275 2.029,3.231 2.04,3.186 2.052,3.142 2.065,3.098 2.08,3.054 2.097,3.011 2.115,2.967 2.135,2.924 2.156,2.881 2.179,2.838 2.203,2.795 2.229,2.752 2.256,2.71 2.285,2.668 2.315,2.626 2.347,2.584 2.38,2.542 2.414,2.501 2.45,2.46 2.487,2.419 2.526,2.378 2.566,2.337 2.607,2.297 2.65,2.257 2.694,2.217 2.74,2.177 2.786,2.138 2.835,2.099 2.884,2.06 2.935,2.021 2.987,1.983 3.04,1.945 3.095,1.907 3.151,1.869 3.208,1.832 3.266,1.795 3.326,1.758 3.387,1.722 3.449,1.686 3.512,1.65 3.576,1.614 3.642,1.579 3.709,1.544 3.777,1.509 3.846,1.474 3.916,1.44 3.988,1.406 4.06,1.373 4.134,1.34 4.285,1.274 4.44,1.21 4.599,1.147 4.763,1.086 4.93,1.026 5.102,0.967 5.278,0.91 5.457,0.854 5.641,0.8 5.828,0.747 6.018,0.696 6.213,0.646 6.411,0.598 6.612,0.552 6.816,0.507 7.024,0.464 7.235,0.423 7.449,0.383 7.666,0.345 7.886,0.309 8.109,0.275 8.335,0.243 8.563,0.212 8.794,0.184 9.028,0.157 9.264,0.133 9.502,0.11 9.743,0.09 9.986,0.071 10.231,0.055 10.478,0.04 10.727,0.028 10.978,0.018 11.231,0.01 11.486,0.005 11.742,0.001 12,0 Z M 3,20.5 v 0.01 l 10e-4,0.021 0.003,0.021 0.004,0.022 0.005,0.021 0.006,0.022 0.007,0.022 0.009,0.023 0.01,0.022 0.011,0.023 0.012,0.023 0.013,0.023 0.015,0.023 0.016,0.024 0.017,0.023 0.018,0.024 0.019,0.024 0.021,0.024 0.022,0.025 0.023,0.024 0.024,0.025 0.052,0.049 0.056,0.05 0.061,0.051 0.066,0.051 0.07,0.051 0.075,0.051 0.079,0.052 0.084,0.052 0.088,0.052 0.092,0.052 0.097,0.052 0.102,0.051 0.105,0.052 0.11,0.052 0.114,0.051 0.119,0.051 0.123,0.051 0.127,0.05 0.131,0.05 0.135,0.05 0.139,0.048 0.144,0.049 0.147,0.047 0.152,0.047 0.155,0.047 0.16,0.045 0.163,0.045 0.167,0.043 0.171,0.043 0.176,0.041 0.178,0.041 0.183,0.039 0.187,0.039 0.19,0.037 0.194,0.035 0.197,0.035 0.202,0.033 0.204,0.031 0.209,0.03 0.212,0.029 0.216,0.027 0.219,0.025 0.222,0.024 0.226,0.021 0.23,0.02 0.233,0.018 0.236,0.016 0.24,0.015 0.243,0.012 0.246,0.01 0.249,0.008 0.253,0.005 0.256,0.004 L 12,23 l 0.26,-0.001 0.257,-0.004 0.254,-0.005 0.25,-0.008 0.247,-0.011 0.244,-0.012 0.241,-0.014 0.237,-0.016 0.233,-0.018 0.231,-0.021 0.226,-0.021 0.224,-0.024 0.22,-0.026 0.216,-0.027 0.212,-0.028 0.21,-0.031 0.205,-0.031 0.202,-0.034 0.198,-0.034 0.194,-0.036 0.191,-0.037 0.187,-0.039 0.183,-0.04 0.179,-0.04 0.175,-0.042 0.172,-0.043 0.168,-0.044 0.163,-0.045 0.16,-0.046 0.155,-0.046 0.152,-0.047 0.148,-0.048 0.143,-0.049 0.139,-0.049 0.136,-0.05 0.131,-0.05 0.126,-0.05 0.123,-0.051 0.118,-0.052 0.114,-0.051 0.11,-0.052 0.106,-0.052 0.101,-0.052 0.096,-0.052 0.092,-0.052 0.088,-0.053 0.083,-0.051 0.079,-0.052 0.074,-0.052 0.07,-0.051 0.065,-0.051 0.06,-0.051 0.056,-0.05 0.051,-0.05 0.023,-0.024 0.023,-0.025 0.021,-0.024 0.02,-0.024 0.019,-0.024 0.018,-0.024 0.017,-0.024 0.015,-0.023 0.014,-0.024 0.013,-0.023 0.012,-0.023 0.01,-0.023 0.01,-0.022 0.008,-0.022 0.006,-0.022 0.006,-0.022 0.004,-0.022 0.004,-0.021 10e-4,-0.021 L 21,20.5 v -4.127 l -0.077,0.055 -0.08,0.053 -0.083,0.054 -0.085,0.053 -0.087,0.052 -0.09,0.052 -0.093,0.051 -0.095,0.05 -0.097,0.05 -0.1,0.049 -0.102,0.049 -0.105,0.048 -0.106,0.047 -0.109,0.047 -0.111,0.046 -0.114,0.045 -0.115,0.045 -0.118,0.044 -0.12,0.043 -0.122,0.042 -0.124,0.042 -0.126,0.041 -0.128,0.04 -0.13,0.04 -0.132,0.038 -0.134,0.038 -0.135,0.037 -0.138,0.037 -0.139,0.035 -0.142,0.035 -0.143,0.034 -0.144,0.033 -0.147,0.032 -0.148,0.031 -0.15,0.03 -0.151,0.03 -0.153,0.029 -0.154,0.027 -0.156,0.027 -0.158,0.026 -0.159,0.025 -0.161,0.024 -0.162,0.023 -0.163,0.022 -0.165,0.021 -0.166,0.02 -0.167,0.019 -0.169,0.018 -0.169,0.017 -0.171,0.016 -0.173,0.015 -0.173,0.014 -0.175,0.013 -0.175,0.012 -0.177,0.011 -0.178,0.01 -0.179,0.008 -0.179,0.008 -0.181,0.006 -0.182,0.005 -0.182,0.004 -0.184,0.003 -0.184,0.002 h -0.37 L 11.631,18.344 11.447,18.341 11.265,18.337 11.083,18.332 10.902,18.326 10.723,18.318 10.544,18.31 10.366,18.3 10.19,18.289 10.014,18.277 9.839,18.264 9.666,18.25 9.494,18.235 9.323,18.219 9.153,18.202 8.984,18.184 8.817,18.165 8.651,18.145 8.486,18.124 8.323,18.102 8.161,18.079 8,18.055 7.841,18.03 7.684,18.004 7.528,17.977 7.373,17.95 7.22,17.921 7.069,17.891 6.919,17.861 6.771,17.83 6.625,17.798 6.48,17.765 6.337,17.731 6.196,17.696 6.056,17.661 5.919,17.624 5.783,17.587 5.649,17.549 5.517,17.511 5.387,17.471 5.259,17.431 5.133,17.39 5.009,17.348 4.887,17.306 4.767,17.262 4.65,17.219 4.534,17.174 4.421,17.129 4.309,17.083 4.2,17.036 4.094,16.989 3.989,16.941 3.887,16.892 3.787,16.843 3.69,16.793 3.595,16.743 3.502,16.691 3.412,16.64 3.325,16.588 3.24,16.535 3.157,16.481 3.077,16.427 3,16.373 Z m 0,-5.654 v 0.011 l 10e-4,0.021 0.003,0.021 0.004,0.021 0.005,0.022 0.006,0.022 0.007,0.022 0.009,0.022 0.01,0.022 0.011,0.023 0.012,0.023 0.013,0.023 0.015,0.024 0.016,0.023 0.017,0.024 0.018,0.024 0.019,0.024 0.021,0.024 0.022,0.024 0.023,0.025 0.024,0.024 0.052,0.05 0.056,0.05 0.061,0.05 0.066,0.051 0.07,0.051 0.075,0.052 0.079,0.051 0.084,0.052 0.088,0.052 0.092,0.052 0.097,0.052 0.102,0.052 0.105,0.052 0.11,0.051 0.114,0.051 0.119,0.052 0.123,0.05 0.127,0.051 0.131,0.05 0.135,0.049 0.139,0.049 0.144,0.048 0.147,0.048 0.152,0.047 0.155,0.046 0.16,0.045 0.163,0.045 0.167,0.044 0.171,0.042 0.176,0.042 0.178,0.04 0.183,0.04 0.187,0.038 0.19,0.037 0.194,0.036 0.197,0.034 0.202,0.033 0.204,0.032 0.209,0.03 0.212,0.028 0.216,0.027 0.219,0.025 0.222,0.024 0.226,0.022 0.23,0.02 0.233,0.018 0.236,0.016 0.24,0.014 0.243,0.012 0.246,0.01 0.249,0.008 0.253,0.006 0.256,0.003 0.259,0.001 0.26,-0.001 0.257,-0.003 0.254,-0.006 0.25,-0.008 0.247,-0.01 0.244,-0.012 0.241,-0.015 0.237,-0.016 0.233,-0.018 0.231,-0.02 0.226,-0.022 0.224,-0.024 0.22,-0.025 0.216,-0.027 0.212,-0.029 0.21,-0.03 0.205,-0.032 0.202,-0.033 0.198,-0.035 0.194,-0.036 0.191,-0.037 0.187,-0.039 0.183,-0.039 0.179,-0.041 0.175,-0.042 0.172,-0.043 0.168,-0.044 0.163,-0.045 0.16,-0.045 0.155,-0.047 0.152,-0.047 0.148,-0.048 0.143,-0.048 0.139,-0.05 0.136,-0.049 0.131,-0.05 0.126,-0.051 0.123,-0.051 0.118,-0.051 0.114,-0.052 0.11,-0.052 0.106,-0.052 0.101,-0.052 0.096,-0.052 0.092,-0.052 0.088,-0.052 0.083,-0.052 0.079,-0.052 0.074,-0.051 0.07,-0.052 0.065,-0.051 0.06,-0.05 0.056,-0.051 0.051,-0.049 0.023,-0.025 0.023,-0.024 0.021,-0.025 0.02,-0.024 0.019,-0.024 0.018,-0.024 0.017,-0.024 0.015,-0.023 0.014,-0.023 0.013,-0.024 0.012,-0.022 0.01,-0.023 0.01,-0.023 0.008,-0.022 0.006,-0.022 0.006,-0.022 0.004,-0.021 0.004,-0.022 10e-4,-0.021 L 21,14.846 v -4.139 l -0.077,0.054 -0.08,0.054 -0.083,0.054 -0.085,0.052 -0.087,0.053 -0.09,0.051 -0.093,0.051 -0.095,0.051 -0.097,0.05 -0.1,0.049 -0.102,0.049 -0.105,0.048 -0.106,0.047 -0.109,0.047 -0.111,0.046 -0.114,0.045 -0.115,0.044 -0.118,0.044 -0.12,0.044 -0.122,0.042 -0.124,0.042 -0.126,0.041 -0.128,0.04 -0.13,0.039 -0.132,0.039 -0.134,0.038 -0.135,0.037 -0.138,0.036 -0.139,0.036 -0.142,0.035 -0.143,0.033 -0.144,0.033 -0.147,0.033 -0.148,0.031 -0.15,0.03 -0.151,0.03 -0.153,0.028 -0.154,0.028 -0.156,0.027 -0.158,0.026 -0.159,0.025 -0.161,0.024 -0.162,0.023 -0.163,0.022 -0.165,0.021 -0.166,0.02 -0.167,0.019 -0.169,0.018 -0.169,0.017 -0.171,0.016 -0.173,0.015 -0.173,0.014 -0.175,0.013 -0.175,0.012 -0.177,0.011 -0.178,0.009 -0.179,0.009 -0.179,0.007 -0.181,0.007 -0.182,0.005 -0.182,0.004 -0.184,0.003 -0.184,0.002 h -0.37 L 11.631,12.678 11.447,12.675 11.265,12.671 11.083,12.666 10.902,12.659 10.723,12.652 10.544,12.643 10.366,12.634 10.19,12.623 10.014,12.611 9.839,12.598 9.666,12.584 9.494,12.569 9.323,12.553 9.153,12.536 8.984,12.518 8.817,12.499 8.651,12.479 8.486,12.458 8.323,12.436 8.161,12.413 8,12.389 7.841,12.364 7.684,12.338 7.528,12.311 7.373,12.283 7.22,12.255 7.069,12.225 6.919,12.195 6.771,12.164 6.625,12.131 6.48,12.098 6.337,12.065 6.196,12.03 6.056,11.994 5.919,11.958 5.783,11.921 5.649,11.883 5.517,11.844 5.387,11.805 5.259,11.765 5.133,11.724 5.009,11.682 4.887,11.639 4.767,11.596 4.65,11.552 4.534,11.508 4.421,11.462 4.309,11.416 4.2,11.37 4.094,11.323 3.989,11.275 3.887,11.226 3.787,11.177 3.69,11.127 3.595,11.076 3.502,11.025 3.412,10.974 3.325,10.921 3.24,10.869 3.157,10.815 3.077,10.761 3,10.707 Z M 3,9.18 v 0.011 l 10e-4,0.02 0.003,0.022 0.004,0.021 0.005,0.022 0.006,0.021 0.007,0.022 0.009,0.023 0.01,0.022 0.011,0.023 0.012,0.023 0.013,0.023 0.015,0.023 0.016,0.024 0.017,0.024 0.018,0.023 0.019,0.024 0.021,0.025 0.022,0.024 0.023,0.024 0.024,0.025 0.052,0.05 0.056,0.05 0.061,0.05 0.066,0.051 0.07,0.051 0.075,0.052 0.079,0.051 0.084,0.052 0.088,0.052 0.092,0.052 0.097,0.052 0.102,0.052 0.105,0.051 0.11,0.052 0.114,0.051 0.119,0.051 0.123,0.051 0.127,0.05 0.131,0.05 0.135,0.05 0.139,0.049 0.144,0.048 0.147,0.048 0.152,0.047 0.155,0.046 0.16,0.045 0.163,0.045 0.167,0.043 0.171,0.043 0.176,0.042 0.178,0.04 0.183,0.04 0.187,0.038 0.19,0.037 0.194,0.036 0.197,0.034 0.202,0.033 0.204,0.032 0.209,0.03 0.212,0.028 0.216,0.027 0.219,0.025 0.222,0.024 0.226,0.021 0.23,0.02 0.233,0.018 0.236,0.017 0.24,0.014 0.243,0.012 0.246,0.01 0.249,0.008 0.253,0.006 0.256,0.003 0.259,10e-4 0.26,-10e-4 0.257,-0.003 0.254,-0.006 0.25,-0.008 0.247,-0.01 0.244,-0.013 0.241,-0.014 0.237,-0.016 0.233,-0.018 0.231,-0.02 0.226,-0.022 0.224,-0.024 0.22,-0.025 0.216,-0.027 0.212,-0.029 0.21,-0.03 0.205,-0.032 0.202,-0.033 0.198,-0.035 0.194,-0.036 0.191,-0.037 0.187,-0.039 0.183,-0.039 0.179,-0.041 0.175,-0.042 0.172,-0.043 0.168,-0.044 0.163,-0.045 0.16,-0.045 0.155,-0.047 0.152,-0.047 0.148,-0.048 0.143,-0.049 0.139,-0.049 0.136,-0.049 0.131,-0.051 0.126,-0.05 0.123,-0.051 0.118,-0.052 0.114,-0.051 0.11,-0.052 0.106,-0.052 0.101,-0.052 0.096,-0.052 0.092,-0.052 0.088,-0.052 0.083,-0.052 0.079,-0.052 0.074,-0.052 0.07,-0.051 0.065,-0.051 0.06,-0.051 0.056,-0.05 0.051,-0.049 0.023,-0.025 0.023,-0.025 0.021,-0.024 0.02,-0.024 L 20.861,9.517 20.879,9.493 20.896,9.469 20.911,9.446 20.925,9.422 20.938,9.399 20.95,9.376 20.96,9.354 20.97,9.331 20.978,9.309 20.984,9.287 20.99,9.265 20.994,9.243 20.998,9.222 20.999,9.201 21,9.18 V 5.027 l -0.077,0.054 -0.08,0.054 -0.083,0.053 -0.085,0.053 -0.087,0.053 -0.09,0.051 -0.093,0.051 -0.095,0.051 -0.097,0.05 -0.1,0.049 L 20.011,5.594 19.906,5.642 19.8,5.69 19.691,5.736 19.58,5.782 19.466,5.828 19.351,5.872 19.233,5.916 19.113,5.959 18.991,6.002 18.867,6.044 18.741,6.085 18.613,6.125 18.483,6.164 18.351,6.203 18.217,6.241 18.082,6.278 17.944,6.314 17.805,6.35 17.663,6.384 17.52,6.418 17.376,6.451 17.229,6.483 17.081,6.515 16.931,6.545 16.78,6.575 16.627,6.603 16.473,6.631 16.317,6.658 16.159,6.684 16,6.708 15.839,6.732 15.677,6.755 15.514,6.778 15.349,6.799 15.183,6.819 15.016,6.838 14.847,6.856 14.678,6.873 14.507,6.889 14.334,6.904 14.161,6.918 13.986,6.931 13.811,6.943 13.634,6.953 13.456,6.963 13.277,6.972 13.098,6.979 12.917,6.985 12.735,6.991 12.553,6.995 12.369,6.998 12.185,6.999 12,7 11.815,6.999 11.631,6.998 11.447,6.995 11.265,6.991 11.083,6.985 10.902,6.979 10.723,6.972 10.544,6.963 10.366,6.953 10.19,6.943 10.014,6.931 9.839,6.918 9.666,6.904 9.494,6.889 9.323,6.873 9.153,6.856 8.984,6.838 8.817,6.819 8.651,6.799 8.486,6.778 8.323,6.755 8.161,6.732 8,6.708 7.841,6.684 7.684,6.658 7.528,6.631 7.373,6.603 7.22,6.575 7.069,6.545 6.919,6.515 6.771,6.483 6.625,6.451 6.48,6.418 6.337,6.384 6.196,6.35 6.056,6.314 5.919,6.278 5.783,6.241 5.649,6.203 5.517,6.164 5.387,6.125 5.259,6.084 5.133,6.043 5.009,6.002 4.887,5.959 4.767,5.916 4.65,5.872 4.534,5.828 4.421,5.782 4.309,5.736 4.2,5.69 4.094,5.642 3.989,5.594 3.887,5.546 3.787,5.496 3.69,5.447 3.595,5.396 3.502,5.345 3.412,5.293 3.325,5.241 3.24,5.188 3.157,5.135 3.077,5.081 3,5.027 Z M 11.74,1.001 11.483,1.005 11.229,1.01 10.979,1.018 10.732,1.029 10.488,1.041 10.247,1.055 10.01,1.071 9.777,1.089 9.546,1.11 9.32,1.132 9.096,1.155 8.876,1.181 8.66,1.208 8.448,1.236 8.238,1.267 8.033,1.299 7.831,1.332 7.633,1.366 7.439,1.402 7.248,1.44 7.061,1.478 6.878,1.518 6.699,1.559 6.524,1.601 6.352,1.644 6.184,1.687 6.021,1.732 5.861,1.778 5.706,1.824 5.554,1.872 5.406,1.92 5.263,1.968 5.124,2.017 4.988,2.067 4.857,2.117 4.731,2.168 4.608,2.219 4.49,2.27 4.376,2.322 4.266,2.374 4.16,2.426 4.059,2.478 3.963,2.53 3.871,2.582 3.783,2.634 3.7,2.686 3.621,2.738 3.547,2.789 3.477,2.841 3.412,2.892 3.352,2.942 3.296,2.992 3.245,3.042 3.222,3.067 3.199,3.091 3.178,3.115 3.158,3.14 3.139,3.164 3.121,3.188 3.104,3.211 3.089,3.235 3.075,3.258 3.062,3.281 3.05,3.304 3.04,3.327 3.03,3.349 3.022,3.371 3.016,3.394 3.01,3.415 3.006,3.437 3.002,3.458 3.001,3.479 3,3.5 3.001,3.521 3.002,3.542 3.006,3.563 3.01,3.585 3.016,3.606 3.022,3.629 3.03,3.651 3.04,3.673 3.05,3.696 3.062,3.719 3.075,3.742 3.089,3.765 3.104,3.789 3.121,3.812 3.139,3.836 3.158,3.86 l 0.02,0.025 0.021,0.024 0.023,0.024 0.023,0.025 0.051,0.05 0.056,0.05 0.06,0.05 0.065,0.051 0.07,0.052 L 3.621,4.262 3.7,4.314 3.783,4.366 3.871,4.418 3.963,4.47 4.059,4.522 4.16,4.574 4.266,4.626 4.376,4.678 4.49,4.73 l 0.118,0.051 0.123,0.051 0.126,0.051 0.131,0.05 0.136,0.05 0.139,0.049 0.143,0.048 0.148,0.048 0.152,0.048 0.155,0.046 0.16,0.046 0.163,0.045 0.168,0.043 0.172,0.043 0.175,0.042 0.179,0.041 0.183,0.04 0.187,0.038 0.191,0.038 0.194,0.036 0.198,0.034 0.202,0.033 0.205,0.032 0.21,0.031 0.212,0.028 0.216,0.027 0.22,0.026 0.224,0.023 0.226,0.022 0.231,0.021 0.233,0.018 0.237,0.016 0.241,0.014 0.244,0.012 0.247,0.011 0.25,0.008 0.254,0.005 L 11.74,5.999 12,6 12.26,5.999 12.517,5.995 12.771,5.99 13.021,5.982 13.268,5.971 13.512,5.959 13.753,5.945 13.99,5.929 14.223,5.911 14.454,5.89 14.68,5.868 14.904,5.845 15.124,5.819 15.34,5.792 15.552,5.764 15.762,5.733 15.967,5.701 16.169,5.668 16.367,5.634 16.561,5.598 16.752,5.56 16.939,5.522 17.122,5.482 17.301,5.441 17.476,5.399 17.648,5.356 17.816,5.313 17.979,5.268 18.139,5.222 18.294,5.176 18.446,5.128 18.594,5.08 18.737,5.032 18.876,4.983 19.012,4.933 19.143,4.883 19.269,4.832 19.392,4.781 19.51,4.73 19.624,4.678 19.734,4.626 19.84,4.574 19.941,4.522 20.037,4.47 20.129,4.418 20.217,4.366 20.3,4.314 l 0.079,-0.052 0.074,-0.051 0.07,-0.052 0.065,-0.051 0.06,-0.05 0.056,-0.05 0.051,-0.05 L 20.778,3.933 20.801,3.909 20.822,3.885 20.842,3.86 20.861,3.836 20.879,3.812 20.896,3.789 20.911,3.765 20.925,3.742 20.938,3.719 20.95,3.696 20.96,3.673 20.97,3.651 20.978,3.629 20.984,3.606 20.99,3.585 20.994,3.563 20.998,3.542 20.999,3.521 21,3.5 20.999,3.479 20.998,3.458 20.994,3.437 20.99,3.415 20.984,3.394 20.978,3.371 20.97,3.349 20.96,3.327 20.95,3.304 20.938,3.281 20.925,3.258 20.911,3.235 20.896,3.211 20.879,3.188 20.861,3.164 20.842,3.14 20.822,3.115 20.801,3.091 20.778,3.067 20.755,3.042 20.704,2.992 20.648,2.942 20.588,2.892 20.523,2.841 20.453,2.789 20.379,2.738 20.3,2.686 20.217,2.634 20.129,2.582 20.037,2.53 19.941,2.478 19.84,2.426 19.734,2.374 19.624,2.322 19.51,2.27 19.392,2.219 19.269,2.168 19.143,2.117 19.012,2.067 18.876,2.017 18.737,1.968 18.594,1.92 18.446,1.872 18.294,1.824 18.139,1.778 17.979,1.732 17.816,1.687 17.648,1.644 17.476,1.601 17.301,1.559 17.122,1.518 16.939,1.478 16.752,1.44 16.561,1.402 16.367,1.366 16.169,1.332 15.967,1.299 15.762,1.267 15.552,1.236 15.34,1.208 15.124,1.181 14.904,1.155 14.68,1.132 14.454,1.11 14.223,1.089 13.99,1.071 13.753,1.055 13.512,1.041 13.268,1.029 13.021,1.018 12.771,1.01 12.517,1.005 12.26,1.001 12,1 Z"
         transform="scale(0.5)"
         id="path92" />
    </symbol>
  </defs>
  <defs
     id="defs100">
    <symbol
       height="24"
       width="24"
       id="clock">
      <path
         d="M 12,2 C 17.514,2 22,6.486 22,12 22,17.514 17.514,22 12,22 6.486,22 2,17.514 2,12 2,6.486 6.486,2 12,2 Z M 12,0 C 5.373,0 0,5.373 0,12 0,18.627 5.373,24 12,24 18.627,24 24,18.627 24,12 24,5.373 18.627,0 12,0 Z m 5.848,12.459 c 0.202,0.038 0.202,0.333 0.001,0.372 -1.907,0.361 -6.045,1.111 -6.547,1.111 -0.719,0 -1.301,-0.582 -1.301,-1.301 0,-0.512 0.77,-5.447 1.125,-7.445 0.034,-0.192 0.312,-0.181 0.343,0.014 l 0.985,6.238 z"
         transform="scale(0.5)"
         id="path97" />
    </symbol>
  </defs>
  <defs
     id="defs105">
    <marker
       orient="auto"
       markerHeight="12"
       markerWidth="12"
       markerUnits="userSpaceOnUse"
       refY="5"
       refX="7.9000001"
       id="arrowhead">
      <path
         d="M 0,0 10,5 0,10 Z"
         id="path102" />
    </marker>
  </defs>
  <defs
     id="defs110">
    <marker
       refY="4.5"
       refX="4"
       orient="auto"
       markerHeight="8"
       markerWidth="15"
       id="crosshead">
      <path
         style="stroke-dasharray:none"
         d="M 1,2 6,7 M 6,2 1,7"
         stroke-width="1pt"
         stroke="#000000"
         fill="none"
         id="path107" />
    </marker>
  </defs>
  <defs
     id="defs115">
    <marker
       orient="auto"
       markerHeight="28"
       markerWidth="20"
       refY="7"
       refX="15.5"
       id="filled-head">
      <path
         d="M 18,7 9,13 14,7 9,1 Z"
         id="path112" />
    </marker>
  </defs>
  <defs
     id="defs120">
    <marker
       orient="auto"
       markerHeight="40"
       markerWidth="60"
       refY="15"
       refX="15"
       id="sequencenumber">
      <circle
         r="6"
         cy="15"
         cx="15"
         id="circle117" />
    </marker>
  </defs>
  <g
     id="g122" />
  <g
     id="g124" />
  <g
     id="g126" />
  <g
     id="g128" />
  <g
     id="g130" />
  <g
     id="g132" />
  <g
     id="g134" />
  <text
     style="font-weight:400;font-size:16px"
     dy="16"
     class="messageText"
     alignment-baseline="middle"
     dominant-baseline="middle"
     text-anchor="middle"
     y="150"
     x="172"
     id="text136">git add</text>
  <line
     style="fill:none"
     marker-end="url(#arrowhead)"
     stroke="none"
     stroke-width="2"
     class="messageLine0"
     y2="183"
     x2="268"
     y1="183"
     x1="76.5"
     id="line138" />
  <text
     style="font-weight:400;font-size:16px"
     dy="16"
     class="messageText"
     alignment-baseline="middle"
     dominant-baseline="middle"
     text-anchor="middle"
     y="198"
     x="375"
     id="text140">git commit</text>
  <line
     style="fill:none"
     marker-end="url(#arrowhead)"
     stroke="none"
     stroke-width="2"
     class="messageLine0"
     y2="231"
     x2="468"
     y1="231"
     x1="281"
     id="line142" />
  <text
     style="font-weight:400;font-size:16px"
     dy="16"
     class="messageText"
     alignment-baseline="middle"
     dominant-baseline="middle"
     text-anchor="middle"
     y="246"
     x="577"
     id="text144">git push</text>
  <line
     style="fill:none"
     marker-end="url(#arrowhead)"
     stroke="none"
     stroke-width="2"
     class="messageLine0"
     y2="279"
     x2="672"
     y1="279"
     x1="481"
     id="line146" />
  <text
     style="font-weight:400;font-size:16px"
     dy="16"
     class="messageText"
     alignment-baseline="middle"
     dominant-baseline="middle"
     text-anchor="middle"
     y="294"
     x="580"
     id="text148">git fetch</text>
  <line
     style="fill:none"
     marker-end="url(#arrowhead)"
     stroke="none"
     stroke-width="2"
     class="messageLine0"
     y2="327"
     x2="484"
     y1="327"
     x1="675"
     id="line150" />
  <text
     style="font-weight:400;font-size:16px"
     dy="16"
     class="messageText"
     alignment-baseline="middle"
     dominant-baseline="middle"
     text-anchor="middle"
     y="342"
     x="378"
     id="text152">git checkout</text>
  <line
     style="fill:none"
     marker-end="url(#arrowhead)"
     stroke="none"
     stroke-width="2"
     class="messageLine0"
     y2="375"
     x2="284"
     y1="375"
     x1="471"
     id="line154" />
  <text
     style="font-weight:400;font-size:16px"
     dy="16"
     class="messageText"
     alignment-baseline="middle"
     dominant-baseline="middle"
     text-anchor="middle"
     y="390"
     x="380"
     id="text156">git merge</text>
  <line
     style="fill:none"
     marker-end="url(#arrowhead)"
     stroke="none"
     stroke-width="2"
     class="messageLine0"
     y2="423"
     x2="289"
     y1="423"
     x1="471"
     id="line158" />
  <text
     style="font-weight:400;font-size:16px"
     dy="16"
     class="messageText"
     alignment-baseline="middle"
     dominant-baseline="middle"
     text-anchor="middle"
     y="438"
     x="379"
     id="text160">git pull (shortcut for git fetch followed by git checkout/merge)</text>
  <line
     style="fill:none"
     marker-end="url(#arrowhead)"
     stroke="none"
     stroke-width="2"
     class="messageLine0"
     y2="471"
     x2="83.5"
     y1="471"
     x1="675"
     id="line162" />
  <text
     xml:space="preserve"
     style="font-style:normal;font-variant:normal;font-weight:normal;font-stretch:normal;font-size:21.3333px;line-height:1.05;font-family:sans-serif;-inkscape-font-specification:'sans-serif, Normal';font-variant-ligatures:normal;font-variant-caps:normal;font-variant-numeric:normal;font-variant-east-asian:normal"
     x="199.05963"
     y="45.462196"
     id="text3171"><tspan
       sodipodi:role="line"
       id="tspan3169"
       x="199.05963"
       y="45.462196">Local machine</tspan></text>
  <text
     xml:space="preserve"
     style="font-style:normal;font-variant:normal;font-weight:normal;font-stretch:normal;font-size:21.3333px;line-height:1.05;font-family:sans-serif;-inkscape-font-specification:'sans-serif, Normal';font-variant-ligatures:normal;font-variant-caps:normal;font-variant-numeric:normal;font-variant-east-asian:normal"
     x="591.06158"
     y="46.709015"
     id="text3171-9"><tspan
       sodipodi:role="line"
       id="tspan3169-5"
       x="591.06158"
       y="46.709015">Remote machine</tspan></text>
</svg>
